<?xml version="1.0" encoding="UTF-8"?>
<!-- Generator: visioncortex VTracer -->
<svg id="svg" version="1.1" xmlns="http://www.w3.org/2000/svg" style="display: block;" viewBox="0 0 1254 1254"><path d="M0 0 C413.82 0 827.64 0 1254 0 C1254 413.82 1254 827.64 1254 1254 C840.18 1254 426.36 1254 0 1254 C0 840.18 0 426.36 0 0 Z " transform="translate(0,0)" style="fill: #19120A;"/><path d="M0 0 C0.64694824 0.433125 1.29389648 0.86625 1.96044922 1.3125 C11.2020675 7.56310576 19.68344647 14.57433239 28 22 C28.53399414 22.47614746 29.06798828 22.95229492 29.61816406 23.44287109 C40.24157447 32.95789472 50.17704711 42.76665276 59 54 C59.79148437 54.98613281 60.58296875 55.97226562 61.3984375 56.98828125 C88.11568047 90.82731296 106.29501584 130.86699291 115 173 C115.16725586 173.80453613 115.33451172 174.60907227 115.50683594 175.43798828 C122.57473646 210.51149466 121.26329284 247.10029458 114 282 C113.83161621 282.81533203 113.66323242 283.63066406 113.48974609 284.47070312 C106.30525791 318.16822582 91.86374068 350.46829259 75.33251953 380.55419922 C73.81052982 383.34776699 72.32440924 386.15902587 70.83984375 388.97265625 C62.93631356 403.89827783 54.55308444 418.46073068 45.84716797 432.92724609 C44.17222019 435.71351265 42.50738014 438.50542874 40.84765625 441.30078125 C33.10055574 454.32695904 25.07516455 467.17524942 17 480 C16.43152344 480.90298828 15.86304688 481.80597656 15.27734375 482.73632812 C12.26854409 487.51270868 9.25360429 492.28515378 6.23242188 497.05371094 C5.14790717 498.76641918 4.06593933 500.48073959 2.984375 502.1953125 C0.16866595 506.64717681 -2.69378496 511.06203072 -5.62109375 515.44140625 C-6.32572754 516.49658447 -7.03036133 517.5517627 -7.75634766 518.63891602 C-8.12487854 519.1907254 -8.49340942 519.74253479 -8.87310791 520.31106567 C-10.36567883 522.54806271 -11.8545465 524.78751025 -13.34315491 527.02714539 C-22.27906857 540.47132138 -31.24825624 553.89192853 -40.3125 567.25 C-40.70233063 567.82492187 -41.09216125 568.39984375 -41.49380493 568.9921875 C-46.27183627 576.03592597 -51.10352077 583.03818798 -56 590 C-57.10855367 591.58429914 -58.21662669 593.16893469 -59.32421875 594.75390625 C-66.37033183 604.82941237 -73.43866681 614.88869118 -80.53662109 624.92773438 C-82.0125684 627.0177979 -83.48524322 629.11013089 -84.95703125 631.203125 C-91.68546676 640.76627148 -98.49829484 650.26516962 -105.35888672 659.73388672 C-108.07648163 663.48644785 -110.78801939 667.24338045 -113.5 671 C-116.75869057 675.51391895 -120.0186666 680.02687665 -123.28515625 684.53515625 C-130.60010531 694.63680431 -137.8304288 704.79466441 -145 715 C-152.4217228 705.75658161 -159.52702725 696.35551402 -166.32836914 686.64916992 C-169.99028355 681.42325843 -173.69616082 676.23183981 -177.4375 671.0625 C-178.24622559 669.94464111 -178.24622559 669.94464111 -179.07128906 668.80419922 C-180.71344894 666.535593 -182.3565484 664.2676706 -184 662 C-190.88512254 652.49975673 -197.74180676 642.98334461 -204.48730469 633.38330078 C-207.52365738 629.06905865 -210.59931748 624.78635062 -213.70458984 620.52148438 C-220.4935725 611.19462208 -227.0265798 601.7096709 -233.4921875 592.15625 C-235.75208479 588.82078995 -238.03791711 585.50657848 -240.35546875 582.2109375 C-244.36870612 576.49728988 -248.28981135 570.72200391 -252.20629883 564.94189453 C-253.43152943 563.13381083 -254.65805844 561.32661339 -255.88476562 559.51953125 C-264.95771856 546.14614634 -273.8601733 532.66406654 -282.71289062 519.14428711 C-284.04506712 517.11018233 -285.3778445 515.07647298 -286.7109375 513.04296875 C-287.14814117 512.37572784 -287.58534485 511.70848694 -288.03579712 511.02102661 C-290.66965174 507.00747306 -293.3280184 503.01140744 -296.00354004 499.02552795 C-300.13757863 492.86324497 -304.12295575 486.65484612 -307.875 480.25 C-311.73120444 473.74312178 -315.67474158 467.30929772 -319.75 460.9375 C-372.30042902 378.46810374 -421.14627172 289.68052132 -404.47363281 165.53613281 C-403.21330759 159.9520301 -401.67648409 154.47237523 -400 149 C-399.5659082 147.57494141 -399.5659082 147.57494141 -399.12304688 146.12109375 C-391.427061 121.37383732 -380.46720253 97.54512291 -366 76 C-365.59362305 75.39236816 -365.18724609 74.78473633 -364.76855469 74.15869141 C-354.80756165 59.4255573 -343.29275486 45.82780404 -331 33 C-330.22011719 32.17886719 -329.44023437 31.35773438 -328.63671875 30.51171875 C-323.1334157 24.85201632 -317.17341917 19.90887812 -311 15 C-310.18660156 14.33097656 -309.37320313 13.66195312 -308.53515625 12.97265625 C-268.57148059 -19.7366731 -219.91473967 -37.96754858 -169 -44 C-167.91460938 -44.1340625 -166.82921875 -44.268125 -165.7109375 -44.40625 C-107.55775368 -50.43943334 -48.0317904 -32.20350511 0 0 Z " transform="translate(773,290)" style="fill: #FAB352;"/><path d="M0 0 C1.0621875 0.57492187 2.124375 1.14984375 3.21875 1.7421875 C42.63876331 23.78894752 71.97583768 62.02268279 84.53515625 105.1328125 C86.90362031 113.64893831 88.91184951 122.21887858 90 131 C90.11085938 131.85335937 90.22171875 132.70671875 90.3359375 133.5859375 C95.32527929 180.64756684 82.203121 226.51274066 52.6875 263.5 C45.11782893 272.55184443 37.28137896 281.66123524 28 289 C27.46987305 289.42603516 26.93974609 289.85207031 26.39355469 290.29101562 C-4.08849679 314.63054674 -40.34283262 327.48658542 -79.375 327.375 C-80.16169067 327.3737915 -80.94838135 327.37258301 -81.75891113 327.37133789 C-116.31911423 327.22802883 -149.92415287 317.66256165 -178 297 C-179.0415625 296.24203125 -180.083125 295.4840625 -181.15625 294.703125 C-192.04376764 286.63384008 -202.52190204 277.61671727 -211 267 C-211.77859375 266.03578125 -212.5571875 265.0715625 -213.359375 264.078125 C-242.90084857 226.93493968 -255.82728924 181.08997179 -251.05664062 133.90698242 C-245.9223622 89.59866301 -223.78677736 47.80841718 -189.4375 19.125 C-187.64140966 17.72863303 -185.82793979 16.35440664 -184 15 C-183.46020508 14.59587891 -182.92041016 14.19175781 -182.36425781 13.77539062 C-162.25849803 -1.21604448 -140.41614617 -11.22558624 -116 -17 C-114.89350098 -17.26683594 -114.89350098 -17.26683594 -113.76464844 -17.5390625 C-75.86607538 -26.22522931 -33.62654758 -18.70666048 0 0 Z " transform="translate(708,365)" style="fill: #19120A;"/><path d="M0 0 C2.50211704 2.50211704 2.5305818 3.93593911 3.11328125 7.3984375 C3.30647949 8.50767578 3.49967773 9.61691406 3.69873047 10.75976562 C4.00254639 12.54930664 4.00254639 12.54930664 4.3125 14.375 C9.26540935 42.12300658 15.61621851 71.42400513 35 93 C35.5671875 93.67160156 36.134375 94.34320313 36.71875 95.03515625 C57.10882844 117.52684365 92.99924617 124.65220904 121.40625 129.40307617 C123.02660156 129.67728394 123.02660156 129.67728394 124.6796875 129.95703125 C125.63601074 130.11147705 126.59233398 130.26592285 127.57763672 130.42504883 C130 131 130 131 133 133 C132.05495605 133.18062988 131.10991211 133.36125977 130.13623047 133.54736328 C73.25437084 143.41998406 73.25437084 143.41998406 29.296875 178.3515625 C12.21499271 203.82049511 5.99589778 235.21493325 1 265 C0.67 265 0.34 265 0 265 C-0.08975098 264.43418213 -0.17950195 263.86836426 -0.27197266 263.28540039 C-5.41477685 231.31099198 -11.63257644 195.93417708 -34 171 C-34.5053125 170.401875 -35.010625 169.80375 -35.53125 169.1875 C-43.70582055 160.1787896 -55.71632962 153.22794462 -67 149 C-67.68674805 148.74154297 -68.37349609 148.48308594 -69.08105469 148.21679688 C-89.39228383 140.70172768 -110.65903126 136.43141105 -132 133 C-128.60972529 131.05026829 -125.40268096 130.38280017 -121.56640625 129.703125 C-119.6484021 129.35326538 -119.6484021 129.35326538 -117.69165039 128.99633789 C-116.68063766 128.81435349 -116.68063766 128.81435349 -115.64920044 128.62869263 C-96.27838125 125.11329278 -77.76588135 120.66580212 -60 112 C-58.47632813 111.25943359 -58.47632813 111.25943359 -56.921875 110.50390625 C-48.26560136 106.04278199 -40.61703962 100.15355635 -34 93 C-33.49339844 92.49855469 -32.98679687 91.99710937 -32.46484375 91.48046875 C-10.07786729 68.07358448 -4.84380223 30.536825 0 0 Z " transform="translate(627,387)" style="fill: #F9B251;"/><path d="M0 0 C2.97 0.33 5.94 0.66 9 1 C5.00889681 2.9955516 3.30013434 3.19546065 -1 3 C-0.67 2.01 -0.34 1.02 0 0 Z " transform="translate(751,518)" style="fill: #EEB045;"/></svg>